<?xml version="1.0" standalone="no"?>
<!DOCTYPE svg PUBLIC "-//W3C//DTD SVG 20010904//EN"
 "http://www.w3.org/TR/2001/REC-SVG-20010904/DTD/svg10.dtd">
<svg version="1.0" xmlns="http://www.w3.org/2000/svg"
 width="500.000000pt" height="500.000000pt" viewBox="0 0 500.000000 500.000000"
 preserveAspectRatio="xMidYMid meet">

<g transform="translate(0.000000,500.000000) scale(0.100000,-0.100000)"
fill="#000000" stroke="none">
<path d="M2395 4243 c-279 -23 -534 -101 -757 -231 -151 -87 -342 -250 -443
-377 -22 -27 -43 -52 -46 -55 -28 -22 -160 -251 -202 -350 -147 -345 -178
-727 -88 -1095 23 -93 64 -219 85 -259 l14 -28 7 54 c3 29 23 116 43 193 20
80 36 162 35 190 -8 380 -7 430 16 540 63 310 186 541 406 761 213 213 452
344 735 405 152 32 448 32 600 0 158 -34 331 -103 467 -187 l42 -25 15 28 c18
36 64 79 107 102 18 10 34 22 36 27 3 10 -117 86 -202 129 -260 132 -599 201
-870 178z"/>
<path d="M3980 4094 c-25 -15 -61 -36 -80 -47 -19 -11 -57 -32 -85 -47 -198
-108 -351 -199 -371 -221 -13 -15 -15 -29 -10 -76 21 -185 22 -176 -20 -212
-22 -19 -102 -95 -179 -170 -77 -75 -159 -153 -182 -173 l-42 -38 -469 0
c-413 0 -471 2 -482 16 -27 31 -80 44 -184 44 -308 -1 -455 -131 -586 -515
-111 -324 -198 -633 -221 -777 -30 -196 23 -329 158 -397 96 -48 189 -44 302
13 78 40 103 67 251 271 78 107 164 215 193 240 90 79 98 80 532 80 l380 0 67
-33 c80 -39 107 -69 293 -319 74 -100 150 -193 168 -207 41 -32 109 -60 175
-75 122 -26 268 54 326 179 18 38 21 63 20 160 -1 139 -13 199 -115 530 -78
255 -160 481 -211 578 -61 117 -165 207 -268 232 -28 7 -52 16 -55 20 -3 4 60
65 140 134 l144 126 102 -45 c57 -25 110 -43 120 -40 9 3 38 29 64 58 26 29
75 81 109 117 235 249 317 340 303 340 -36 0 -263 32 -269 38 -6 7 1 58 24
168 15 72 10 78 -42 48z m-2096 -1190 c12 -12 16 -37 16 -105 l0 -89 88 0 c48
0 94 -5 102 -10 11 -7 15 -28 15 -82 0 -110 2 -108 -110 -108 l-95 0 0 -86 c0
-120 -3 -124 -99 -124 -63 0 -80 3 -85 16 -3 9 -6 56 -6 105 l0 89 -94 0
c-115 0 -120 4 -118 103 1 92 8 97 124 97 l88 0 0 95 c0 111 3 114 97 115 43
0 66 -5 77 -16z m1405 -10 c83 -59 42 -194 -60 -194 -79 0 -132 86 -94 156 9
17 27 37 38 42 33 16 90 14 116 -4z m-230 -198 c66 -34 82 -117 32 -166 -36
-36 -73 -46 -112 -30 -41 17 -69 56 -69 97 0 45 14 70 53 93 38 24 59 25 96 6z
m421 -1 c85 -44 79 -158 -9 -195 -116 -48 -194 126 -87 191 37 23 58 24 96 4z
m-212 -199 c42 -22 64 -52 65 -90 1 -45 -20 -84 -55 -102 -38 -20 -70 -17
-109 9 -68 45 -60 150 14 182 41 18 52 18 85 1z"/>
<path d="M2286 3754 c-115 -21 -248 -68 -354 -125 -51 -27 -99 -54 -105 -59
-7 -5 -46 -37 -88 -70 -88 -69 -169 -154 -232 -243 -48 -67 -90 -137 -85 -143
2 -1 23 15 48 36 89 78 238 130 369 130 51 0 64 4 104 35 215 164 513 222 802
157 71 -16 192 -72 264 -123 53 -37 72 -46 78 -35 4 7 47 48 96 92 48 43 87
82 87 86 0 11 -165 120 -235 156 -74 37 -215 87 -275 97 -25 5 -54 10 -65 12
-65 13 -337 11 -409 -3z"/>
<path d="M3916 3280 c-38 -38 -75 -70 -82 -70 -19 0 -18 -11 5 -57 99 -199
150 -512 122 -760 l-11 -102 39 -153 c21 -84 42 -182 46 -218 l8 -65 15 35
c25 58 30 73 47 123 122 378 113 799 -24 1147 -36 90 -83 190 -91 190 -3 0
-37 -31 -74 -70z"/>
<path d="M3535 3140 c10 -11 20 -18 23 -15 7 6 -18 35 -31 35 -5 0 -2 -9 8
-20z"/>
<path d="M1899 1743 c-18 -27 -36 -50 -39 -53 -10 -8 -80 -114 -80 -121 0 -23
236 -151 345 -187 251 -83 507 -82 760 2 89 30 256 119 318 169 l27 22 -22 27
c-13 14 -49 63 -81 107 -33 45 -61 81 -63 81 -2 0 -30 -17 -62 -39 -157 -106
-296 -146 -507 -145 -151 0 -230 16 -365 71 -66 28 -164 85 -175 103 -11 19
-24 10 -56 -37z"/>
<path d="M1576 1391 c-11 -17 -134 -44 -208 -45 l-77 -1 56 -50 c252 -225 547
-371 878 -436 46 -9 144 -14 290 -14 193 0 233 3 323 23 283 63 537 189 762
378 124 104 122 99 27 99 -60 0 -102 7 -153 24 l-72 24 -43 -35 c-111 -89
-267 -172 -424 -226 -111 -39 -389 -79 -472 -68 -21 2 -69 7 -108 11 -89 7
-145 20 -275 60 -164 51 -270 105 -417 212 -78 57 -79 57 -87 44z"/>
</g>
</svg>
